<mxfile host="app.diagrams.net" modified="2023-12-07T00:41:25.460Z" agent="Mozilla/5.0 (Windows NT 10.0; Win64; x64) AppleWebKit/537.36 (KHTML, like Gecko) Chrome/119.0.0.0 Safari/537.36" etag="jKkGGcF4FfqNqMJ_2H-1" version="22.1.7" type="github">
  <diagram name="Página-1" id="wn-pFwz-H9feM3f-disZ">
    <mxGraphModel dx="201" dy="2140" grid="1" gridSize="10" guides="1" tooltips="1" connect="1" arrows="1" fold="1" page="1" pageScale="1" pageWidth="827" pageHeight="1169" math="0" shadow="0">
      <root>
        <mxCell id="0" />
        <mxCell id="1" parent="0" />
        <mxCell id="uRqf5Eq1P4C4BOOoW8sz-87" style="edgeStyle=orthogonalEdgeStyle;rounded=0;orthogonalLoop=1;jettySize=auto;html=1;" edge="1" parent="1" source="uRqf5Eq1P4C4BOOoW8sz-6">
          <mxGeometry relative="1" as="geometry">
            <mxPoint x="2290" y="420" as="targetPoint" />
          </mxGeometry>
        </mxCell>
        <mxCell id="uRqf5Eq1P4C4BOOoW8sz-88" style="edgeStyle=orthogonalEdgeStyle;rounded=0;orthogonalLoop=1;jettySize=auto;html=1;" edge="1" parent="1" source="uRqf5Eq1P4C4BOOoW8sz-6">
          <mxGeometry relative="1" as="geometry">
            <mxPoint x="2349" y="90" as="targetPoint" />
          </mxGeometry>
        </mxCell>
        <mxCell id="uRqf5Eq1P4C4BOOoW8sz-89" style="edgeStyle=orthogonalEdgeStyle;rounded=0;orthogonalLoop=1;jettySize=auto;html=1;exitX=0.75;exitY=0;exitDx=0;exitDy=0;exitPerimeter=0;" edge="1" parent="1" source="uRqf5Eq1P4C4BOOoW8sz-6">
          <mxGeometry relative="1" as="geometry">
            <mxPoint x="2368.727272727273" y="180" as="targetPoint" />
          </mxGeometry>
        </mxCell>
        <mxCell id="uRqf5Eq1P4C4BOOoW8sz-6" value="" style="sketch=0;points=[[0,0,0],[0.25,0,0],[0.5,0,0],[0.75,0,0],[1,0,0],[0,1,0],[0.25,1,0],[0.5,1,0],[0.75,1,0],[1,1,0],[0,0.25,0],[0,0.5,0],[0,0.75,0],[1,0.25,0],[1,0.5,0],[1,0.75,0]];points=[[0,0,0],[0.25,0,0],[0.5,0,0],[0.75,0,0],[1,0,0],[0,1,0],[0.25,1,0],[0.5,1,0],[0.75,1,0],[1,1,0],[0,0.25,0],[0,0.5,0],[0,0.75,0],[1,0.25,0],[1,0.5,0],[1,0.75,0]];outlineConnect=0;fontColor=#232F3E;fillColor=#C925D1;strokeColor=#ffffff;dashed=0;verticalLabelPosition=bottom;verticalAlign=top;align=center;html=1;fontSize=12;fontStyle=0;aspect=fixed;shape=mxgraph.aws4.resourceIcon;resIcon=mxgraph.aws4.cloudwatch_2;" vertex="1" parent="1">
          <mxGeometry x="2310" y="262.5" width="78" height="78" as="geometry" />
        </mxCell>
        <mxCell id="uRqf5Eq1P4C4BOOoW8sz-10" value="" style="sketch=0;outlineConnect=0;fontColor=#232F3E;gradientColor=none;fillColor=#232F3D;strokeColor=none;dashed=0;verticalLabelPosition=bottom;verticalAlign=top;align=center;html=1;fontSize=12;fontStyle=0;aspect=fixed;pointerEvents=1;shape=mxgraph.aws4.internet_alt2;" vertex="1" parent="1">
          <mxGeometry x="1950" y="70" width="90" height="90" as="geometry" />
        </mxCell>
        <mxCell id="uRqf5Eq1P4C4BOOoW8sz-23" style="edgeStyle=orthogonalEdgeStyle;rounded=0;orthogonalLoop=1;jettySize=auto;html=1;exitX=1;exitY=0.5;exitDx=0;exitDy=0;" edge="1" parent="1" source="uRqf5Eq1P4C4BOOoW8sz-15">
          <mxGeometry relative="1" as="geometry">
            <mxPoint x="1950" y="100" as="targetPoint" />
          </mxGeometry>
        </mxCell>
        <mxCell id="uRqf5Eq1P4C4BOOoW8sz-15" value="&lt;div style=&quot;text-align: justify;&quot;&gt;&lt;span style=&quot;background-color: initial;&quot;&gt;&lt;span style=&quot;white-space: pre;&quot;&gt;&#x9;&lt;/span&gt;&lt;span style=&quot;white-space: pre;&quot;&gt;&#x9;&lt;/span&gt;Acceso&lt;/span&gt;&lt;/div&gt;&lt;ul&gt;&lt;li style=&quot;text-align: justify;&quot;&gt;&lt;span style=&quot;background-color: initial;&quot;&gt;Alumnos&lt;/span&gt;&lt;/li&gt;&lt;li style=&quot;text-align: justify;&quot;&gt;Profesores&lt;/li&gt;&lt;/ul&gt;" style="rounded=1;whiteSpace=wrap;html=1;align=left;fillColor=#d5e8d4;strokeColor=#82b366;" vertex="1" parent="1">
          <mxGeometry x="1718.25" y="60" width="131.75" height="80" as="geometry" />
        </mxCell>
        <mxCell id="uRqf5Eq1P4C4BOOoW8sz-17" value="&lt;div style=&quot;text-align: justify;&quot;&gt;&lt;br&gt;&lt;/div&gt;" style="rounded=1;whiteSpace=wrap;html=1;align=left;fillColor=#FFCCFF;" vertex="1" parent="1">
          <mxGeometry x="2138.25" y="40" width="131.75" height="250" as="geometry" />
        </mxCell>
        <mxCell id="uRqf5Eq1P4C4BOOoW8sz-16" value="&lt;div style=&quot;text-align: justify;&quot;&gt;&lt;span style=&quot;background-color: initial;&quot;&gt;&lt;span style=&quot;white-space: pre;&quot;&gt;&#x9;&lt;/span&gt;&lt;span style=&quot;white-space: pre;&quot;&gt;&#x9;&lt;/span&gt;Acceso&lt;/span&gt;&lt;/div&gt;&lt;ul&gt;&lt;li style=&quot;text-align: justify;&quot;&gt;Gestión&lt;/li&gt;&lt;/ul&gt;" style="rounded=1;whiteSpace=wrap;html=1;align=left;fillColor=#d5e8d4;strokeColor=#82b366;" vertex="1" parent="1">
          <mxGeometry x="1718.25" y="200" width="131.75" height="80" as="geometry" />
        </mxCell>
        <mxCell id="uRqf5Eq1P4C4BOOoW8sz-18" value="&lt;div style=&quot;text-align: justify;&quot;&gt;&lt;br&gt;&lt;/div&gt;" style="rounded=1;whiteSpace=wrap;html=1;align=left;fillColor=#CCE5FF;" vertex="1" parent="1">
          <mxGeometry x="2420" y="40" width="131.75" height="250" as="geometry" />
        </mxCell>
        <mxCell id="uRqf5Eq1P4C4BOOoW8sz-19" value="&lt;div style=&quot;text-align: justify;&quot;&gt;&lt;br&gt;&lt;/div&gt;" style="rounded=1;whiteSpace=wrap;html=1;align=left;fillColor=#CCFFE6;" vertex="1" parent="1">
          <mxGeometry x="2910" y="40" width="131.75" height="250" as="geometry" />
        </mxCell>
        <mxCell id="uRqf5Eq1P4C4BOOoW8sz-21" value="" style="image;aspect=fixed;html=1;points=[];align=center;fontSize=12;image=img/lib/azure2/networking/Azure_Firewall_Manager.svg;fillColor=#E5CCFF;strokeColor=#000000;" vertex="1" parent="1">
          <mxGeometry x="2174" y="85" width="70" height="60" as="geometry" />
        </mxCell>
        <mxCell id="uRqf5Eq1P4C4BOOoW8sz-22" value="" style="sketch=0;points=[[0,0,0],[0.25,0,0],[0.5,0,0],[0.75,0,0],[1,0,0],[0,1,0],[0.25,1,0],[0.5,1,0],[0.75,1,0],[1,1,0],[0,0.25,0],[0,0.5,0],[0,0.75,0],[1,0.25,0],[1,0.5,0],[1,0.75,0]];outlineConnect=0;fontColor=#232F3E;fillColor=#FF33FF;strokeColor=#000000;dashed=0;verticalLabelPosition=bottom;verticalAlign=top;align=center;html=1;fontSize=12;fontStyle=0;aspect=fixed;shape=mxgraph.aws4.resourceIcon;resIcon=mxgraph.aws4.vpc;" vertex="1" parent="1">
          <mxGeometry x="2175.12" y="203" width="58" height="58" as="geometry" />
        </mxCell>
        <mxCell id="uRqf5Eq1P4C4BOOoW8sz-25" value="" style="endArrow=classic;html=1;rounded=0;" edge="1" parent="1">
          <mxGeometry width="50" height="50" relative="1" as="geometry">
            <mxPoint x="1850" y="240" as="sourcePoint" />
            <mxPoint x="1960" y="130" as="targetPoint" />
          </mxGeometry>
        </mxCell>
        <mxCell id="uRqf5Eq1P4C4BOOoW8sz-26" value="" style="endArrow=classic;html=1;rounded=0;" edge="1" parent="1">
          <mxGeometry width="50" height="50" relative="1" as="geometry">
            <mxPoint x="2038" y="100" as="sourcePoint" />
            <mxPoint x="2170" y="100" as="targetPoint" />
          </mxGeometry>
        </mxCell>
        <mxCell id="uRqf5Eq1P4C4BOOoW8sz-28" value="" style="endArrow=classic;html=1;rounded=0;dashed=1;dashPattern=8 8;" edge="1" parent="1">
          <mxGeometry width="50" height="50" relative="1" as="geometry">
            <mxPoint x="2203.86" y="122.5" as="sourcePoint" />
            <mxPoint x="2203.86" y="207.5" as="targetPoint" />
          </mxGeometry>
        </mxCell>
        <mxCell id="uRqf5Eq1P4C4BOOoW8sz-30" value="" style="sketch=0;points=[[0,0,0],[0.25,0,0],[0.5,0,0],[0.75,0,0],[1,0,0],[0,1,0],[0.25,1,0],[0.5,1,0],[0.75,1,0],[1,1,0],[0,0.25,0],[0,0.5,0],[0,0.75,0],[1,0.25,0],[1,0.5,0],[1,0.75,0]];outlineConnect=0;fontColor=#232F3E;fillColor=#007FFF;strokeColor=#ffffff;dashed=0;verticalLabelPosition=bottom;verticalAlign=top;align=center;html=1;fontSize=12;fontStyle=0;aspect=fixed;shape=mxgraph.aws4.resourceIcon;resIcon=mxgraph.aws4.elastic_load_balancing;" vertex="1" parent="1">
          <mxGeometry x="2460.88" y="53" width="50" height="50" as="geometry" />
        </mxCell>
        <mxCell id="uRqf5Eq1P4C4BOOoW8sz-32" value="&lt;div style=&quot;text-align: justify;&quot;&gt;&lt;br&gt;&lt;/div&gt;" style="rounded=1;whiteSpace=wrap;html=1;align=left;fillColor=#FFFFCC;" vertex="1" parent="1">
          <mxGeometry x="3150" y="173.75" width="300" height="306.25" as="geometry" />
        </mxCell>
        <mxCell id="uRqf5Eq1P4C4BOOoW8sz-33" value="Firewall&lt;br&gt;" style="text;html=1;align=center;verticalAlign=middle;resizable=0;points=[];autosize=1;strokeColor=none;fillColor=none;" vertex="1" parent="1">
          <mxGeometry x="2173.12" y="290" width="60" height="30" as="geometry" />
        </mxCell>
        <mxCell id="uRqf5Eq1P4C4BOOoW8sz-34" value="Balanceadores de Carga" style="text;html=1;align=center;verticalAlign=middle;resizable=0;points=[];autosize=1;strokeColor=none;fillColor=none;" vertex="1" parent="1">
          <mxGeometry x="2405.88" y="290" width="160" height="30" as="geometry" />
        </mxCell>
        <mxCell id="uRqf5Eq1P4C4BOOoW8sz-35" value="Servidores Web" style="text;html=1;align=center;verticalAlign=middle;resizable=0;points=[];autosize=1;strokeColor=none;fillColor=none;" vertex="1" parent="1">
          <mxGeometry x="2920.87" y="290" width="110" height="30" as="geometry" />
        </mxCell>
        <mxCell id="uRqf5Eq1P4C4BOOoW8sz-38" value="Elastic Load Balancer" style="text;html=1;align=center;verticalAlign=middle;resizable=0;points=[];autosize=1;strokeColor=none;fillColor=none;" vertex="1" parent="1">
          <mxGeometry x="2415.88" y="95" width="140" height="30" as="geometry" />
        </mxCell>
        <mxCell id="uRqf5Eq1P4C4BOOoW8sz-39" value="Elastic Load Balancer" style="text;html=1;align=center;verticalAlign=middle;resizable=0;points=[];autosize=1;strokeColor=none;fillColor=none;" vertex="1" parent="1">
          <mxGeometry x="2420" y="255" width="140" height="30" as="geometry" />
        </mxCell>
        <mxCell id="uRqf5Eq1P4C4BOOoW8sz-40" value="" style="endArrow=classic;html=1;rounded=0;dashed=1;" edge="1" parent="1">
          <mxGeometry width="50" height="50" relative="1" as="geometry">
            <mxPoint x="2485.34" y="122.5" as="sourcePoint" />
            <mxPoint x="2485.34" y="207.5" as="targetPoint" />
          </mxGeometry>
        </mxCell>
        <mxCell id="uRqf5Eq1P4C4BOOoW8sz-41" value="" style="sketch=0;points=[[0,0,0],[0.25,0,0],[0.5,0,0],[0.75,0,0],[1,0,0],[0,1,0],[0.25,1,0],[0.5,1,0],[0.75,1,0],[1,1,0],[0,0.25,0],[0,0.5,0],[0,0.75,0],[1,0.25,0],[1,0.5,0],[1,0.75,0]];outlineConnect=0;fontColor=#232F3E;fillColor=#007FFF;strokeColor=#ffffff;dashed=0;verticalLabelPosition=bottom;verticalAlign=top;align=center;html=1;fontSize=12;fontStyle=0;aspect=fixed;shape=mxgraph.aws4.resourceIcon;resIcon=mxgraph.aws4.elastic_load_balancing;" vertex="1" parent="1">
          <mxGeometry x="2460.87" y="215" width="50" height="50" as="geometry" />
        </mxCell>
        <mxCell id="uRqf5Eq1P4C4BOOoW8sz-44" value="Failover" style="rounded=0;whiteSpace=wrap;html=1;" vertex="1" parent="1">
          <mxGeometry x="2460.87" y="156.25" width="49.13" height="17.5" as="geometry" />
        </mxCell>
        <mxCell id="uRqf5Eq1P4C4BOOoW8sz-45" value="VPN" style="rounded=0;whiteSpace=wrap;html=1;" vertex="1" parent="1">
          <mxGeometry x="1883.69" y="182.5" width="49.13" height="17.5" as="geometry" />
        </mxCell>
        <mxCell id="uRqf5Eq1P4C4BOOoW8sz-49" value="&lt;div style=&quot;text-align: justify;&quot;&gt;&lt;br&gt;&lt;/div&gt;" style="rounded=1;whiteSpace=wrap;html=1;align=left;fillColor=#E6FFCC;" vertex="1" parent="1">
          <mxGeometry x="3160" y="-30" width="131.75" height="125" as="geometry" />
        </mxCell>
        <mxCell id="uRqf5Eq1P4C4BOOoW8sz-50" value="Bases de Datos" style="text;html=1;align=center;verticalAlign=middle;resizable=0;points=[];autosize=1;strokeColor=none;fillColor=none;" vertex="1" parent="1">
          <mxGeometry x="3246.41" y="480" width="110" height="30" as="geometry" />
        </mxCell>
        <mxCell id="uRqf5Eq1P4C4BOOoW8sz-51" value="Servidor Cache" style="text;html=1;align=center;verticalAlign=middle;resizable=0;points=[];autosize=1;strokeColor=none;fillColor=none;" vertex="1" parent="1">
          <mxGeometry x="3170.87" y="97.5" width="110" height="30" as="geometry" />
        </mxCell>
        <mxCell id="uRqf5Eq1P4C4BOOoW8sz-52" value="Amazon EC2" style="sketch=0;outlineConnect=0;fontColor=#232F3E;gradientColor=none;strokeColor=#ffffff;fillColor=#66B2FF;dashed=0;verticalLabelPosition=middle;verticalAlign=bottom;align=center;html=1;whiteSpace=wrap;fontSize=10;fontStyle=1;spacing=3;shape=mxgraph.aws4.productIcon;prIcon=mxgraph.aws4.ec2;" vertex="1" parent="1">
          <mxGeometry x="2940.27" y="50" width="71.19" height="88" as="geometry" />
        </mxCell>
        <mxCell id="uRqf5Eq1P4C4BOOoW8sz-54" value="Amazon EC2" style="sketch=0;outlineConnect=0;fontColor=#232F3E;gradientColor=none;strokeColor=#ffffff;fillColor=#66B2FF;dashed=0;verticalLabelPosition=middle;verticalAlign=bottom;align=center;html=1;whiteSpace=wrap;fontSize=10;fontStyle=1;spacing=3;shape=mxgraph.aws4.productIcon;prIcon=mxgraph.aws4.ec2;" vertex="1" parent="1">
          <mxGeometry x="2940.28" y="196" width="71.19" height="88" as="geometry" />
        </mxCell>
        <mxCell id="uRqf5Eq1P4C4BOOoW8sz-55" value="" style="sketch=0;outlineConnect=0;fontColor=#232F3E;gradientColor=none;fillColor=#FF9933;strokeColor=none;dashed=0;verticalLabelPosition=bottom;verticalAlign=top;align=center;html=1;fontSize=12;fontStyle=0;aspect=fixed;pointerEvents=1;shape=mxgraph.aws4.aurora_instance;" vertex="1" parent="1">
          <mxGeometry x="3176.88" y="204.75" width="78" height="78" as="geometry" />
        </mxCell>
        <mxCell id="uRqf5Eq1P4C4BOOoW8sz-56" value="" style="sketch=0;outlineConnect=0;fontColor=#232F3E;gradientColor=none;fillColor=#FF9933;strokeColor=none;dashed=0;verticalLabelPosition=bottom;verticalAlign=top;align=center;html=1;fontSize=12;fontStyle=0;aspect=fixed;pointerEvents=1;shape=mxgraph.aws4.aurora_instance;" vertex="1" parent="1">
          <mxGeometry x="3331" y="203.75" width="79" height="79" as="geometry" />
        </mxCell>
        <mxCell id="uRqf5Eq1P4C4BOOoW8sz-57" value="Master" style="text;html=1;align=center;verticalAlign=middle;resizable=0;points=[];autosize=1;strokeColor=none;fillColor=none;" vertex="1" parent="1">
          <mxGeometry x="3185.88" y="278.75" width="60" height="30" as="geometry" />
        </mxCell>
        <mxCell id="uRqf5Eq1P4C4BOOoW8sz-58" value="Slave" style="text;html=1;align=center;verticalAlign=middle;resizable=0;points=[];autosize=1;strokeColor=none;fillColor=none;" vertex="1" parent="1">
          <mxGeometry x="3345.5" y="278.75" width="50" height="30" as="geometry" />
        </mxCell>
        <mxCell id="uRqf5Eq1P4C4BOOoW8sz-59" value="" style="image;points=[];aspect=fixed;html=1;align=center;shadow=0;dashed=0;image=img/lib/allied_telesis/storage/Datacenter_Server_Half_Rack_ToR.svg;" vertex="1" parent="1">
          <mxGeometry x="3263.8100000000004" y="350" width="67.19" height="87.3" as="geometry" />
        </mxCell>
        <mxCell id="uRqf5Eq1P4C4BOOoW8sz-60" value="Acceso GAF" style="text;html=1;align=center;verticalAlign=middle;resizable=0;points=[];autosize=1;strokeColor=none;fillColor=none;" vertex="1" parent="1">
          <mxGeometry x="3256.41" y="430" width="90" height="30" as="geometry" />
        </mxCell>
        <mxCell id="uRqf5Eq1P4C4BOOoW8sz-62" value="Memcache - EC2" style="text;html=1;align=center;verticalAlign=middle;resizable=0;points=[];autosize=1;strokeColor=none;fillColor=none;" vertex="1" parent="1">
          <mxGeometry x="3165.88" y="60" width="120" height="30" as="geometry" />
        </mxCell>
        <mxCell id="uRqf5Eq1P4C4BOOoW8sz-63" value="" style="outlineConnect=0;dashed=0;verticalLabelPosition=bottom;verticalAlign=top;align=center;html=1;shape=mxgraph.aws3.cache_node;fillColor=#66B2FF;gradientColor=none;" vertex="1" parent="1">
          <mxGeometry x="3195.87" y="-2" width="60" height="63" as="geometry" />
        </mxCell>
        <mxCell id="uRqf5Eq1P4C4BOOoW8sz-64" value="&lt;div style=&quot;text-align: justify;&quot;&gt;&lt;br&gt;&lt;/div&gt;" style="rounded=1;whiteSpace=wrap;html=1;align=left;fillColor=#CCCCFF;" vertex="1" parent="1">
          <mxGeometry x="2680" y="40" width="131.75" height="320" as="geometry" />
        </mxCell>
        <mxCell id="uRqf5Eq1P4C4BOOoW8sz-65" value="" style="sketch=0;points=[[0,0,0],[0.25,0,0],[0.5,0,0],[0.75,0,0],[1,0,0],[0,1,0],[0.25,1,0],[0.5,1,0],[0.75,1,0],[1,1,0],[0,0.25,0],[0,0.5,0],[0,0.75,0],[1,0.25,0],[1,0.5,0],[1,0.75,0]];outlineConnect=0;fontColor=#232F3E;fillColor=#9933FF;strokeColor=#ffffff;dashed=0;verticalLabelPosition=bottom;verticalAlign=top;align=center;html=1;fontSize=12;fontStyle=0;aspect=fixed;shape=mxgraph.aws4.resourceIcon;resIcon=mxgraph.aws4.waf;" vertex="1" parent="1">
          <mxGeometry x="2706.87" y="249.75" width="78" height="78" as="geometry" />
        </mxCell>
        <mxCell id="uRqf5Eq1P4C4BOOoW8sz-66" value="WAF" style="text;html=1;align=center;verticalAlign=middle;resizable=0;points=[];autosize=1;strokeColor=none;fillColor=none;" vertex="1" parent="1">
          <mxGeometry x="2720.87" y="330.25" width="50" height="30" as="geometry" />
        </mxCell>
        <mxCell id="uRqf5Eq1P4C4BOOoW8sz-68" value="" style="endArrow=none;dashed=1;html=1;rounded=0;" edge="1" parent="1">
          <mxGeometry width="50" height="50" relative="1" as="geometry">
            <mxPoint x="3260.35" y="230" as="sourcePoint" />
            <mxPoint x="3334.4700000000003" y="230" as="targetPoint" />
          </mxGeometry>
        </mxCell>
        <mxCell id="uRqf5Eq1P4C4BOOoW8sz-69" value="" style="endArrow=classic;html=1;rounded=0;entryX=0;entryY=0.5;entryDx=0;entryDy=0;entryPerimeter=0;" edge="1" parent="1" target="uRqf5Eq1P4C4BOOoW8sz-30">
          <mxGeometry width="50" height="50" relative="1" as="geometry">
            <mxPoint x="2244" y="97.5" as="sourcePoint" />
            <mxPoint x="2376" y="97.5" as="targetPoint" />
          </mxGeometry>
        </mxCell>
        <mxCell id="uRqf5Eq1P4C4BOOoW8sz-70" value="" style="endArrow=classic;html=1;rounded=0;entryX=0;entryY=0.5;entryDx=0;entryDy=0;entryPerimeter=0;dashed=1;dashPattern=8 8;" edge="1" parent="1" target="uRqf5Eq1P4C4BOOoW8sz-41">
          <mxGeometry width="50" height="50" relative="1" as="geometry">
            <mxPoint x="2240" y="100" as="sourcePoint" />
            <mxPoint x="2471" y="88" as="targetPoint" />
          </mxGeometry>
        </mxCell>
        <mxCell id="uRqf5Eq1P4C4BOOoW8sz-72" value="VPC" style="rounded=0;whiteSpace=wrap;html=1;" vertex="1" parent="1">
          <mxGeometry x="2184.4399999999996" y="262.5" width="49.13" height="17.5" as="geometry" />
        </mxCell>
        <mxCell id="uRqf5Eq1P4C4BOOoW8sz-74" style="edgeStyle=orthogonalEdgeStyle;rounded=0;orthogonalLoop=1;jettySize=auto;html=1;entryX=-0.015;entryY=0.333;entryDx=0;entryDy=0;entryPerimeter=0;strokeWidth=1;" edge="1" parent="1" source="uRqf5Eq1P4C4BOOoW8sz-30" target="uRqf5Eq1P4C4BOOoW8sz-52">
          <mxGeometry relative="1" as="geometry" />
        </mxCell>
        <mxCell id="uRqf5Eq1P4C4BOOoW8sz-75" style="edgeStyle=orthogonalEdgeStyle;rounded=0;orthogonalLoop=1;jettySize=auto;html=1;strokeWidth=1;" edge="1" parent="1" source="uRqf5Eq1P4C4BOOoW8sz-41" target="uRqf5Eq1P4C4BOOoW8sz-54">
          <mxGeometry relative="1" as="geometry" />
        </mxCell>
        <mxCell id="uRqf5Eq1P4C4BOOoW8sz-77" value="" style="endArrow=classic;html=1;rounded=0;strokeWidth=1;" edge="1" parent="1">
          <mxGeometry width="50" height="50" relative="1" as="geometry">
            <mxPoint x="2510.88" y="80" as="sourcePoint" />
            <mxPoint x="2940" y="220" as="targetPoint" />
          </mxGeometry>
        </mxCell>
        <mxCell id="uRqf5Eq1P4C4BOOoW8sz-78" value="" style="endArrow=classic;html=1;rounded=0;strokeWidth=1;" edge="1" parent="1">
          <mxGeometry width="50" height="50" relative="1" as="geometry">
            <mxPoint x="2511.75" y="235.5" as="sourcePoint" />
            <mxPoint x="2940" y="100" as="targetPoint" />
          </mxGeometry>
        </mxCell>
        <mxCell id="uRqf5Eq1P4C4BOOoW8sz-79" value="" style="endArrow=none;html=1;rounded=0;entryX=0;entryY=0.5;entryDx=0;entryDy=0;entryPerimeter=0;" edge="1" parent="1" target="uRqf5Eq1P4C4BOOoW8sz-63">
          <mxGeometry width="50" height="50" relative="1" as="geometry">
            <mxPoint x="3011.47" y="90" as="sourcePoint" />
            <mxPoint x="3061.47" y="40" as="targetPoint" />
          </mxGeometry>
        </mxCell>
        <mxCell id="uRqf5Eq1P4C4BOOoW8sz-80" value="" style="endArrow=none;html=1;rounded=0;entryX=0;entryY=0.5;entryDx=0;entryDy=0;entryPerimeter=0;" edge="1" parent="1" source="uRqf5Eq1P4C4BOOoW8sz-54" target="uRqf5Eq1P4C4BOOoW8sz-63">
          <mxGeometry width="50" height="50" relative="1" as="geometry">
            <mxPoint x="3021.47" y="100" as="sourcePoint" />
            <mxPoint x="3206" y="40" as="targetPoint" />
          </mxGeometry>
        </mxCell>
        <mxCell id="uRqf5Eq1P4C4BOOoW8sz-81" value="" style="endArrow=classic;html=1;rounded=0;strokeWidth=1;" edge="1" parent="1" target="uRqf5Eq1P4C4BOOoW8sz-55">
          <mxGeometry width="50" height="50" relative="1" as="geometry">
            <mxPoint x="3011.4700000000003" y="97.5" as="sourcePoint" />
            <mxPoint x="3440.59" y="237.5" as="targetPoint" />
          </mxGeometry>
        </mxCell>
        <mxCell id="uRqf5Eq1P4C4BOOoW8sz-83" value="" style="endArrow=classic;html=1;rounded=0;strokeWidth=1;" edge="1" parent="1" target="uRqf5Eq1P4C4BOOoW8sz-59">
          <mxGeometry width="50" height="50" relative="1" as="geometry">
            <mxPoint x="3007.3500000000004" y="114.25" as="sourcePoint" />
            <mxPoint x="3176.88" y="305.75" as="targetPoint" />
          </mxGeometry>
        </mxCell>
        <mxCell id="uRqf5Eq1P4C4BOOoW8sz-84" value="" style="edgeStyle=orthogonalEdgeStyle;rounded=0;orthogonalLoop=1;jettySize=auto;html=1;exitX=0.5;exitY=1;exitDx=0;exitDy=0;exitPerimeter=0;" edge="1" parent="1" target="uRqf5Eq1P4C4BOOoW8sz-59">
          <mxGeometry relative="1" as="geometry">
            <mxPoint x="2204.12" y="290" as="sourcePoint" />
            <mxPoint x="2660.87" y="419" as="targetPoint" />
            <Array as="points">
              <mxPoint x="2204" y="419" />
            </Array>
          </mxGeometry>
        </mxCell>
        <mxCell id="uRqf5Eq1P4C4BOOoW8sz-67" value="Firewall de Aplicacion Web" style="text;html=1;align=center;verticalAlign=middle;resizable=0;points=[];autosize=1;strokeColor=none;fillColor=none;" vertex="1" parent="1">
          <mxGeometry x="2660.87" y="360" width="170" height="30" as="geometry" />
        </mxCell>
        <mxCell id="uRqf5Eq1P4C4BOOoW8sz-85" value="" style="endArrow=classic;html=1;rounded=0;" edge="1" parent="1" target="uRqf5Eq1P4C4BOOoW8sz-55">
          <mxGeometry width="50" height="50" relative="1" as="geometry">
            <mxPoint x="3011.47" y="240" as="sourcePoint" />
            <mxPoint x="3061.47" y="190" as="targetPoint" />
          </mxGeometry>
        </mxCell>
        <mxCell id="uRqf5Eq1P4C4BOOoW8sz-86" value="" style="endArrow=classic;html=1;rounded=0;" edge="1" parent="1" source="uRqf5Eq1P4C4BOOoW8sz-54" target="uRqf5Eq1P4C4BOOoW8sz-59">
          <mxGeometry width="50" height="50" relative="1" as="geometry">
            <mxPoint x="3021.47" y="250" as="sourcePoint" />
            <mxPoint x="3187" y="253" as="targetPoint" />
          </mxGeometry>
        </mxCell>
      </root>
    </mxGraphModel>
  </diagram>
</mxfile>
